<mxfile host="app.diagrams.net" modified="2023-12-12T02:44:46.279Z" agent="Mozilla/5.0 (Windows NT 10.0; WOW64) AppleWebKit/537.36 (KHTML, like Gecko) Chrome/102.0.0.0 Safari/537.36" etag="5XIRuVTtX68Ve8o5bOAn" version="22.1.7" type="github">
  <diagram name="第 1 页" id="ibf2PCoqaVutC7yzK83v">
    <mxGraphModel dx="1434" dy="774" grid="1" gridSize="10" guides="1" tooltips="1" connect="1" arrows="1" fold="1" page="1" pageScale="1" pageWidth="827" pageHeight="1169" math="0" shadow="0">
      <root>
        <mxCell id="0" />
        <mxCell id="MtduzZIu6qgq0mqLRXFH-38" parent="0" />
        <mxCell id="MtduzZIu6qgq0mqLRXFH-52" value="" style="shape=crossbar;whiteSpace=wrap;html=1;rounded=1;strokeWidth=3;" vertex="1" parent="MtduzZIu6qgq0mqLRXFH-38">
          <mxGeometry x="280" y="290" width="200" height="20" as="geometry" />
        </mxCell>
        <mxCell id="MtduzZIu6qgq0mqLRXFH-53" value="" style="shape=crossbar;whiteSpace=wrap;html=1;rounded=1;strokeWidth=3;" vertex="1" parent="MtduzZIu6qgq0mqLRXFH-38">
          <mxGeometry x="280" y="330" width="280" height="20" as="geometry" />
        </mxCell>
        <mxCell id="MtduzZIu6qgq0mqLRXFH-54" value="" style="shape=curlyBracket;whiteSpace=wrap;html=1;rounded=1;flipH=1;labelPosition=right;verticalLabelPosition=middle;align=left;verticalAlign=middle;rotation=-90;size=0.5;fontStyle=0;strokeWidth=3;" vertex="1" parent="MtduzZIu6qgq0mqLRXFH-38">
          <mxGeometry x="509" y="275" width="20" height="80" as="geometry" />
        </mxCell>
        <mxCell id="MtduzZIu6qgq0mqLRXFH-56" value="" style="line;strokeWidth=2;direction=south;html=1;dashed=1;spacingLeft=0;" vertex="1" parent="MtduzZIu6qgq0mqLRXFH-38">
          <mxGeometry x="476" y="240" width="10" height="160" as="geometry" />
        </mxCell>
        <mxCell id="MtduzZIu6qgq0mqLRXFH-59" value="" style="shape=curlyBracket;whiteSpace=wrap;html=1;rounded=1;flipH=1;labelPosition=right;verticalLabelPosition=middle;align=left;verticalAlign=middle;rotation=-90;size=0.5;fontStyle=0;strokeWidth=3;" vertex="1" parent="MtduzZIu6qgq0mqLRXFH-38">
          <mxGeometry x="370" y="160" width="20" height="200" as="geometry" />
        </mxCell>
        <mxCell id="MtduzZIu6qgq0mqLRXFH-60" value="&lt;b&gt;&lt;font style=&quot;font-size: 19px;&quot;&gt;单位1&lt;/font&gt;&lt;/b&gt;" style="text;html=1;align=center;verticalAlign=middle;resizable=0;points=[];autosize=1;strokeColor=none;fillColor=none;" vertex="1" parent="MtduzZIu6qgq0mqLRXFH-38">
          <mxGeometry x="345" y="200" width="70" height="40" as="geometry" />
        </mxCell>
        <mxCell id="MtduzZIu6qgq0mqLRXFH-61" value="&lt;b style=&quot;font-size: 17px;&quot;&gt;2&lt;br&gt;——&lt;br&gt;3&lt;br&gt;&lt;/b&gt;" style="text;html=1;align=center;verticalAlign=middle;resizable=0;points=[];autosize=1;strokeColor=none;fillColor=none;" vertex="1" parent="MtduzZIu6qgq0mqLRXFH-38">
          <mxGeometry x="489" y="240" width="60" height="70" as="geometry" />
        </mxCell>
        <mxCell id="MtduzZIu6qgq0mqLRXFH-62" value="" style="shape=curlyBracket;whiteSpace=wrap;html=1;rounded=1;flipH=1;labelPosition=right;verticalLabelPosition=middle;align=left;verticalAlign=middle;rotation=90;size=0.5;fontStyle=0;strokeWidth=3;" vertex="1" parent="MtduzZIu6qgq0mqLRXFH-38">
          <mxGeometry x="370" y="275" width="20" height="200" as="geometry" />
        </mxCell>
        <mxCell id="MtduzZIu6qgq0mqLRXFH-63" value="&lt;b&gt;&lt;font style=&quot;font-size: 18px;&quot;&gt;15&lt;/font&gt;&lt;/b&gt;" style="text;html=1;align=center;verticalAlign=middle;resizable=0;points=[];autosize=1;strokeColor=none;fillColor=none;" vertex="1" parent="MtduzZIu6qgq0mqLRXFH-38">
          <mxGeometry x="360" y="381" width="40" height="40" as="geometry" />
        </mxCell>
        <mxCell id="MtduzZIu6qgq0mqLRXFH-64" value="&lt;b&gt;&lt;font style=&quot;font-size: 18px;&quot;&gt;问：机械厂这个月实际生产零件15个，比原计划多做了3分之2，原计划生产零件多少个？&lt;/font&gt;&lt;/b&gt;" style="text;html=1;align=center;verticalAlign=middle;resizable=0;points=[];autosize=1;strokeColor=none;fillColor=none;" vertex="1" parent="MtduzZIu6qgq0mqLRXFH-38">
          <mxGeometry x="70" y="90" width="730" height="40" as="geometry" />
        </mxCell>
        <mxCell id="MtduzZIu6qgq0mqLRXFH-65" value="&lt;b&gt;&lt;font style=&quot;font-size: 16px;&quot;&gt;原计划：&lt;/font&gt;&lt;/b&gt;" style="text;html=1;align=center;verticalAlign=middle;resizable=0;points=[];autosize=1;strokeColor=none;fillColor=none;" vertex="1" parent="MtduzZIu6qgq0mqLRXFH-38">
          <mxGeometry x="187" y="280" width="90" height="30" as="geometry" />
        </mxCell>
        <mxCell id="MtduzZIu6qgq0mqLRXFH-66" value="&lt;b&gt;&lt;font style=&quot;font-size: 16px;&quot;&gt;实际：&lt;/font&gt;&lt;/b&gt;" style="text;html=1;align=center;verticalAlign=middle;resizable=0;points=[];autosize=1;strokeColor=none;fillColor=none;" vertex="1" parent="MtduzZIu6qgq0mqLRXFH-38">
          <mxGeometry x="189" y="320" width="70" height="30" as="geometry" />
        </mxCell>
        <mxCell id="MtduzZIu6qgq0mqLRXFH-67" value="&lt;b&gt;&lt;font color=&quot;#007fff&quot; style=&quot;font-size: 18px;&quot;&gt;攻略：单位“1” = 数量 / 对应分率&lt;/font&gt;&lt;/b&gt;" style="text;html=1;align=center;verticalAlign=middle;resizable=0;points=[];autosize=1;strokeColor=#d79b00;fillColor=#ffe6cc;" vertex="1" parent="MtduzZIu6qgq0mqLRXFH-38">
          <mxGeometry x="124" y="140" width="290" height="40" as="geometry" />
        </mxCell>
        <mxCell id="MtduzZIu6qgq0mqLRXFH-68" value="&lt;b style=&quot;font-size: 18px;&quot;&gt;&lt;font color=&quot;#00cc00&quot;&gt;计算过程 15 / （1 + 三分之2）= 9&lt;/font&gt;&lt;br&gt;&lt;/b&gt;" style="text;html=1;align=center;verticalAlign=middle;resizable=0;points=[];autosize=1;strokeColor=none;fillColor=none;" vertex="1" parent="MtduzZIu6qgq0mqLRXFH-38">
          <mxGeometry x="235" y="421" width="290" height="40" as="geometry" />
        </mxCell>
      </root>
    </mxGraphModel>
  </diagram>
</mxfile>
